<?xml version="1.0" encoding="UTF-8"?>
<!DOCTYPE svg PUBLIC "-//W3C//DTD SVG 1.1//EN" "http://www.w3.org/Graphics/SVG/1.1/DTD/svg11.dtd">
<!-- Creator: CorelDRAW X8 -->
<svg xmlns="http://www.w3.org/2000/svg" xml:space="preserve" width="2000px" height="690px" version="1.1" style="shape-rendering:geometricPrecision; text-rendering:geometricPrecision; image-rendering:optimizeQuality; fill-rule:evenodd; clip-rule:evenodd"
viewBox="0 0 2000 690"
 xmlns:xlink="http://www.w3.org/1999/xlink">
 <defs>
  <style type="text/css">
   <![CDATA[
    .fil1 {fill:#FF771B}
    .fil2 {fill:#FEFEFE;fill-rule:nonzero}
    .fil0 {fill:#374796;fill-rule:nonzero}
   ]]>
  </style>
 </defs>
 <g id="Слой_x0020_1">
  <metadata id="CorelCorpID_0Corel-Layer"/>
  <g id="_2144538970720">
   <path class="fil0" d="M0 515l34 0c20,0 33,1 40,3 9,2 17,7 23,15 7,7 10,16 10,28 0,11 -3,20 -9,28 -6,7 -15,12 -25,15 -8,2 -22,2 -44,2l-12 0 0 80 -17 0 0 -171zm17 17l0 58 29 0c12,0 20,-1 26,-3 5,-2 9,-6 13,-10 3,-5 4,-10 4,-16 0,-6 -1,-11 -4,-16 -4,-5 -8,-8 -13,-10 -5,-2 -13,-3 -25,-3l-30 0z"/>
   <path id="1" class="fil0" d="M222 511c26,0 48,9 65,26 17,17 26,38 26,63 0,25 -9,47 -26,64 -17,17 -38,26 -63,26 -26,0 -47,-9 -65,-26 -17,-17 -26,-38 -26,-63 0,-16 4,-31 12,-45 8,-14 19,-25 33,-33 13,-8 28,-12 44,-12zm1 17c-13,0 -25,3 -36,9 -11,7 -20,16 -27,27 -6,11 -9,24 -9,37 0,20 7,38 21,52 14,14 31,21 51,21 13,0 25,-4 37,-10 11,-7 20,-15 26,-26 6,-12 10,-24 10,-38 0,-13 -4,-25 -10,-36 -6,-11 -15,-20 -27,-27 -11,-6 -23,-9 -36,-9z"/>
   <path id="2" class="fil0" d="M347 686l0 -171 86 0 0 17 -68 0 0 54 7 0c22,0 37,2 47,6 9,4 17,10 22,18 6,8 9,17 9,27 0,13 -5,24 -15,34 -10,10 -23,15 -41,15l-47 0zm18 -82l0 65 20 0c13,0 22,-1 28,-3 5,-3 10,-7 13,-12 4,-5 6,-10 6,-17 0,-8 -3,-14 -8,-20 -5,-5 -11,-9 -18,-11 -7,-2 -18,-2 -32,-2l-9 0z"/>
   <path id="3" class="fil0" d="M565 511c26,0 47,9 65,26 17,17 26,38 26,63 0,25 -9,47 -26,64 -17,17 -39,26 -64,26 -25,0 -46,-9 -64,-26 -17,-17 -26,-38 -26,-63 0,-16 4,-31 12,-45 8,-14 19,-25 33,-33 13,-8 28,-12 44,-12zm1 17c-13,0 -25,3 -36,9 -11,7 -20,16 -27,27 -6,11 -9,24 -9,37 0,20 7,38 21,52 14,14 31,21 51,21 13,0 25,-4 37,-10 11,-7 20,-15 26,-26 6,-12 9,-24 9,-38 0,-13 -3,-25 -9,-36 -6,-11 -15,-20 -27,-27 -11,-6 -23,-9 -36,-9z"/>
   <polygon id="4" class="fil0" points="673,532 673,515 767,515 767,532 729,532 729,686 711,686 711,532 "/>
   <path id="5" class="fil0" d="M873 511c26,0 47,9 65,26 17,17 26,38 26,63 0,25 -9,47 -26,64 -18,17 -39,26 -64,26 -25,0 -46,-9 -64,-26 -17,-17 -26,-38 -26,-63 0,-16 4,-31 12,-45 8,-14 19,-25 32,-33 14,-8 29,-12 45,-12zm1 17c-13,0 -25,3 -36,9 -12,7 -20,16 -27,27 -6,11 -9,24 -9,37 0,20 7,38 21,52 14,14 31,21 51,21 13,0 25,-4 36,-10 12,-7 21,-15 27,-26 6,-12 9,-24 9,-38 0,-13 -3,-25 -9,-36 -6,-11 -15,-20 -27,-27 -11,-6 -23,-9 -36,-9z"/>
   <polygon id="6" class="fil0" points="981,532 981,515 1075,515 1075,532 1037,532 1037,686 1019,686 1019,532 "/>
   <polygon id="7" class="fil0" points="1100,515 1197,515 1197,532 1117,532 1117,585 1197,585 1197,602 1117,602 1117,669 1197,669 1197,686 1100,686 "/>
   <polygon id="8" class="fil0" points="1218,515 1238,515 1279,581 1320,515 1340,515 1289,598 1343,686 1323,686 1279,614 1234,686 1214,686 1269,598 "/>
   <polygon id="9" class="fil0" points="1371,515 1389,515 1389,587 1476,587 1476,515 1493,515 1493,686 1476,686 1476,603 1389,603 1389,686 1371,686 "/>
   <polygon id="10" class="fil0" points="1669,686 1651,686 1651,555 1538,686 1534,686 1534,515 1551,515 1551,648 1665,515 1669,515 "/>
   <polygon id="11" class="fil0" points="1710,515 1727,515 1727,579 1796,515 1819,515 1736,592 1825,686 1802,686 1727,606 1727,686 1710,686 "/>
   <path id="12" class="fil0" d="M1920 515l80 171 -18 0 -27 -56 -74 0 -27 56 -19 0 81 -171 4 0zm-2 36l-29 62 58 0 -29 -62z"/>
   <rect class="fil1" width="2000" height="480"/>
   <path class="fil2" d="M255 278c0,18 -3,33 -9,47 -6,13 -15,24 -25,33 -11,9 -24,15 -38,20 -14,4 -30,6 -46,6 -7,0 -14,0 -21,-2 -8,-2 -16,-4 -24,-6 -7,-3 -15,-6 -22,-9 -7,-3 -14,-5 -19,-8l8 -80c11,6 24,11 37,15 13,3 27,5 40,5 2,0 5,0 9,0 3,-1 7,-1 10,-2 3,-1 6,-3 8,-5 2,-2 3,-4 3,-8 0,-2 -1,-5 -2,-6 -2,-2 -4,-4 -6,-5 -3,-1 -5,-2 -9,-2 -3,-1 -6,-1 -9,-1 -3,-1 -6,-1 -8,-1 -3,0 -5,0 -6,0 -12,0 -22,-2 -31,-6 -9,-4 -17,-9 -24,-16 -6,-7 -11,-15 -15,-25 -4,-9 -5,-20 -5,-31 0,-15 3,-29 9,-41 6,-13 14,-23 25,-31 10,-9 22,-15 35,-20 14,-5 28,-7 42,-7 6,0 13,0 20,1 6,0 13,1 20,2 7,1 13,3 20,5 6,2 12,4 18,7l-8 79c-9,-3 -18,-6 -28,-8 -9,-2 -19,-3 -28,-3 -2,0 -4,0 -7,0 -2,1 -5,1 -8,1 -3,0 -6,1 -9,1 -3,1 -5,2 -8,3 -2,1 -4,3 -6,5 -1,1 -2,3 -1,6 0,3 1,5 3,7 2,2 4,3 8,4 3,1 6,2 10,2 4,1 8,1 12,1 3,0 7,0 10,0 3,0 6,0 8,0 11,1 20,3 28,7 9,4 16,9 21,15 6,6 11,13 14,22 3,9 4,18 4,29z"/>
   <polygon id="1" class="fil2" points="570,97 552,384 463,388 463,236 423,358 389,358 358,249 358,376 267,379 271,109 372,105 411,234 465,97 "/>
   <path id="2" class="fil2" d="M827 365l-97 12 -12 -44 -44 0 -10 44 -100 -9 78 -261 109 -5 76 263zm-116 -92l-15 -68 -14 68 29 0z"/>
   <path id="3" class="fil2" d="M1060 193c0,11 -1,20 -3,28 -1,8 -4,16 -8,23 -4,7 -9,13 -15,19 -6,6 -13,11 -21,17l46 83 -88 17 -30 -83 -24 0 -4 82 -84 0c1,-30 2,-60 2,-89 1,-30 2,-59 2,-89 1,-15 1,-30 1,-44 0,-15 1,-30 2,-45 9,-3 18,-6 27,-8 9,-3 17,-4 26,-6 9,-1 18,-2 27,-2 10,-1 19,-1 29,-1 15,0 29,2 43,6 14,5 26,11 37,19 10,8 19,18 25,31 7,12 10,26 10,42zm-88 7c0,-6 0,-11 -2,-15 -1,-5 -4,-9 -6,-12 -3,-4 -7,-6 -11,-8 -5,-2 -10,-3 -16,-3 -2,0 -5,0 -7,1 -3,0 -5,0 -8,1l-3 73 5 0c6,0 11,-1 17,-2 6,-2 11,-4 16,-7 4,-3 8,-7 11,-12 3,-4 4,-10 4,-16z"/>
   <polygon id="4" class="fil2" points="1280,102 1278,185 1220,187 1205,373 1122,377 1123,192 1065,195 1067,103 "/>
   <path id="5" class="fil2" d="M1462 270l-8 87 -164 13c0,-45 1,-91 2,-136 1,-45 2,-90 4,-135l102 0c-3,28 -6,57 -9,85 -3,29 -5,57 -6,86 6,1 12,1 18,1 6,0 12,0 18,0 8,0 15,0 22,0 7,-1 14,-1 21,-1z"/>
   <path id="6" class="fil2" d="M1718 365l-97 12 -12 -44 -44 0 -10 44 -100 -9 78 -261 109 -5 76 263zm-116 -92l-15 -68 -14 68 29 0z"/>
   <path id="7" class="fil2" d="M1949 312c0,11 -2,20 -6,28 -4,8 -9,15 -16,20 -6,5 -14,10 -22,13 -9,4 -18,7 -28,8 -9,2 -18,4 -28,4 -9,1 -18,1 -26,1 -8,0 -17,0 -25,-1 -9,0 -18,-1 -26,-3 -9,-1 -17,-3 -26,-5 -8,-3 -16,-6 -23,-9l-1 -252c8,-3 15,-6 24,-8 8,-3 16,-5 25,-6 8,-2 17,-3 25,-4 9,-1 17,-1 25,-1 9,0 18,0 28,2 9,1 18,3 27,5 9,3 17,7 25,11 7,4 14,10 19,16 6,7 10,14 14,22 3,9 4,19 4,30 0,7 -1,14 -3,20 -2,7 -5,12 -9,18 -4,5 -8,9 -14,13 -6,3 -12,6 -19,7 9,3 16,6 23,10 7,4 13,10 18,16 5,6 9,13 11,21 3,7 4,15 4,24zm-99 -111c0,-4 -1,-7 -2,-10 -2,-3 -4,-5 -6,-6 -2,-2 -5,-3 -7,-4 -3,-1 -5,-1 -8,-1 -2,0 -5,0 -7,1 -3,1 -5,2 -7,3l-2 43c3,0 7,0 12,-1 4,0 8,-1 12,-3 5,-2 8,-5 11,-8 3,-3 4,-8 4,-14zm-28 63c-3,0 -7,1 -11,2l0 44c2,1 4,1 5,1 2,1 4,1 6,1 3,0 6,-1 9,-1 3,-1 6,-2 9,-4 3,-1 5,-4 7,-7 2,-3 3,-7 3,-12 0,-5 -1,-9 -3,-12 -2,-3 -4,-5 -7,-7 -2,-2 -5,-3 -9,-4 -3,0 -6,-1 -9,-1z"/>
  </g>
 </g>
</svg>
